<svg width="1020" height="612" viewBox="0 0 1020 612" fill="none" xmlns="http://www.w3.org/2000/svg">
<rect width="1020" height="612" fill="#DEDEDE"/>
<g id="undraw_online_organizer_ofxm 1">
<g id="plant">
<path id="Vector" d="M48.0628 611.513C47.8785 611.212 43.5326 603.956 42.0259 588.887C40.6439 575.063 41.5326 551.76 53.6174 519.255C76.5119 457.677 48.3413 407.993 48.0534 407.498L49.4433 406.691C49.5162 406.817 56.7854 419.484 61.0795 439.656C66.7535 466.399 64.6874 494.205 55.1234 519.815C32.2681 581.289 49.2597 610.389 49.4339 610.676L48.0628 611.513Z" fill="#3F3D56"/>
<path id="Vector_2" d="M39.1105 403.882C44.8769 403.882 49.5515 399.207 49.5515 393.441C49.5515 387.675 44.8769 383 39.1105 383C33.3442 383 28.6696 387.675 28.6696 393.441C28.6696 399.207 33.3442 403.882 39.1105 403.882Z" fill="#6C63FF"/>
<path id="Vector_3" d="M72.0397 442.433C77.806 442.433 82.4806 437.758 82.4806 431.992C82.4806 426.226 77.806 421.551 72.0397 421.551C66.2733 421.551 61.5988 426.226 61.5988 431.992C61.5988 437.758 66.2733 442.433 72.0397 442.433Z" fill="#3F3D56"/>
<path id="Vector_4" d="M49.5515 468.134C55.3179 468.134 59.9924 463.459 59.9924 457.693C59.9924 451.927 55.3179 447.252 49.5515 447.252C43.7851 447.252 39.1105 451.927 39.1105 457.693C39.1105 463.459 43.7851 468.134 49.5515 468.134Z" fill="#6C63FF"/>
<path id="Vector_5" d="M76.8586 489.819C82.625 489.819 87.2995 485.144 87.2995 479.378C87.2995 473.612 82.625 468.937 76.8586 468.937C71.0922 468.937 66.4177 473.612 66.4177 479.378C66.4177 485.144 71.0922 489.819 76.8586 489.819Z" fill="#6C63FF"/>
<path id="Vector_6" d="M41.52 523.551C47.2864 523.551 51.9609 518.877 51.9609 513.11C51.9609 507.344 47.2864 502.669 41.52 502.669C35.7536 502.669 31.079 507.344 31.079 513.11C31.079 518.877 35.7536 523.551 41.52 523.551Z" fill="#3F3D56"/>
<path id="Vector_7" d="M54.3704 611.898C54.3704 611.898 43.9294 586.197 75.2523 566.921L54.3704 611.898Z" fill="#3F3D56"/>
<path id="Vector_8" d="M41.5297 611.431C41.5297 611.431 36.7779 584.101 0 584.335L41.5297 611.431Z" fill="#3F3D56"/>
</g>
</g>
</svg>
